<svg width="1097" height="1097" viewBox="0 0 1097 1097" fill="none" xmlns="http://www.w3.org/2000/svg">
<g opacity="0.63">
<g filter="url(#filter0_b_48_8)">
<path d="M1097 548.5C1097 851.428 851.428 1097 548.5 1097C245.572 1097 0 851.428 0 548.5C0 245.572 245.572 0 548.5 0C851.428 0 1097 245.572 1097 548.5Z" fill="black"/>
<path d="M1004 548.5C1004 800.066 800.066 1004 548.5 1004C296.934 1004 93 800.066 93 548.5C93 296.934 296.934 93 548.5 93C800.066 93 1004 296.934 1004 548.5Z" fill="#001627"/>
<path d="M928 548.5C928 758.092 758.092 928 548.5 928C338.908 928 169 758.092 169 548.5C169 338.908 338.908 169 548.5 169C758.092 169 928 338.908 928 548.5Z" fill="#022644"/>
<path d="M861 548.5C861 721.089 721.089 861 548.5 861C375.911 861 236 721.089 236 548.5C236 375.911 375.911 236 548.5 236C721.089 236 861 375.911 861 548.5Z" fill="#04365F"/>
<path d="M807 548.5C807 691.266 691.266 807 548.5 807C405.734 807 290 691.266 290 548.5C290 405.734 405.734 290 548.5 290C691.266 290 807 405.734 807 548.5Z" fill="#09508A"/>
<path d="M734 548.5C734 650.949 650.949 734 548.5 734C446.051 734 363 650.949 363 548.5C363 446.051 446.051 363 548.5 363C650.949 363 734 446.051 734 548.5Z" fill="#1971B9"/>
<path d="M670 548.5C670 615.603 615.603 670 548.5 670C481.397 670 427 615.603 427 548.5C427 481.397 481.397 427 548.5 427C615.603 427 670 481.397 670 548.5Z" fill="#2D8DDC"/>
<path d="M624 548.5C624 590.197 590.197 624 548.5 624C506.803 624 473 590.197 473 548.5C473 506.803 506.803 473 548.5 473C590.197 473 624 506.803 624 548.5Z" fill="#3B9FF1"/>
</g>
</g>
<defs>
<filter id="filter0_b_48_8" x="-3" y="-3" width="1103" height="1103" filterUnits="userSpaceOnUse" color-interpolation-filters="sRGB">
<feFlood flood-opacity="0" result="BackgroundImageFix"/>
<feGaussianBlur in="BackgroundImageFix" stdDeviation="1.5"/>
<feComposite in2="SourceAlpha" operator="in" result="effect1_backgroundBlur_48_8"/>
<feBlend mode="normal" in="SourceGraphic" in2="effect1_backgroundBlur_48_8" result="shape"/>
</filter>
</defs>
</svg>
